<?xml version="1.0" encoding="utf-8"?>
<!-- Generator: Adobe Illustrator 22.0.0, SVG Export Plug-In . SVG Version: 6.00 Build 0)  -->
<svg version="1.1" id="Capa_1" xmlns="http://www.w3.org/2000/svg" xmlns:xlink="http://www.w3.org/1999/xlink" x="0px" y="0px"
	 viewBox="0 0 1224 792" style="enable-background:new 0 0 1224 792;" xml:space="preserve">
<style type="text/css">
	.st0{font-family:'Arial-BoldMT';}
	.st1{font-size:36.2261px;}
	.st2{font-size:32.7309px;}
	.st3{font-size:26.769px;}
	.st4{font-size:26.2687px;}
	.st5{font-size:25.6102px;}
	.st6{font-size:26.2689px;}
	.st7{fill:none;stroke:#000000;stroke-width:5;stroke-miterlimit:10;}
	.st8{fill:#060708;}
	.st9{fill-rule:evenodd;clip-rule:evenodd;fill:#070709;}
	.st10{fill:#070709;}
	.st11{fill:none;stroke:#000000;stroke-width:3;stroke-miterlimit:10;}
</style>
<g>
	<g>
		<text transform="matrix(-0.5243 -0.8515 0.8515 -0.5243 514.0002 514.4077)" class="st0 st1">1</text>
		<text transform="matrix(-0.5585 -0.8295 0.8295 -0.5585 477.6485 491.4709)" class="st0 st1">0</text>
		<text transform="matrix(-0.2465 -0.9691 0.9691 -0.2465 451.2255 466.4153)" class="st0 st1">1</text>
		<text transform="matrix(-0.2857 -0.9583 0.9583 -0.2857 423.2721 433.6659)" class="st0 st1">0</text>
		<text transform="matrix(-2.267000e-02 -0.9997 0.9997 -2.267000e-02 406.5722 404.3578)" class="st0 st1">1</text>
		<text transform="matrix(-6.328000e-02 -0.998 0.998 -6.328000e-02 394.6595 366.2354)" class="st0 st1">0</text>
		<text transform="matrix(0.3196 -0.9476 0.9476 0.3196 377.8485 331.6891)" class="st0 st1">1</text>
		<text transform="matrix(0.2808 -0.9598 0.9598 0.2808 377.8823 288.9794)" class="st0 st1">0</text>
		<text transform="matrix(0.4661 -0.8847 0.8847 0.4661 388.2058 256.2168)" class="st0 st1">1</text>
		<text transform="matrix(0.6953 -0.7187 0.7187 0.6953 392.7864 216.0786)" class="st0 st1">0</text>
		<text transform="matrix(0.8967 -0.4426 0.4426 0.8967 411.691 184.9844)" class="st0 st1">1</text>
		<text transform="matrix(0.878 -0.4787 0.4787 0.878 437.9629 150.8844)" class="st0 st1">0</text>
		<text transform="matrix(0.9998 -2.234000e-02 2.234000e-02 0.9998 460.6776 130.3767)" class="st0 st1">1</text>
		<text transform="matrix(0.998 -6.295000e-02 6.295000e-02 0.998 491.8503 110.6639)" class="st0 st1">0</text>
		<text transform="matrix(0.9998 -1.832000e-02 1.832000e-02 0.9998 527.1779 92.6305)" class="st0 st1">1</text>
		<text transform="matrix(0.9995 3.152000e-02 -3.152000e-02 0.9995 565.3516 81.6853)" class="st0 st1">0</text>
		<text transform="matrix(0.9976 6.944000e-02 -6.944000e-02 0.9976 600.1259 76.0816)" class="st0 st1">1</text>
		<text transform="matrix(0.9907 0.1362 -0.1362 0.9907 631.7032 76.0784)" class="st0 st1">0</text>
		<text transform="matrix(0.9911 0.1335 -0.1335 0.9911 662.2419 85.1118)" class="st0 st1">1</text>
		<text transform="matrix(0.9212 0.389 -0.389 0.9212 692.3789 92.636)" class="st0 st1">0</text>
		<text transform="matrix(0.8153 0.579 -0.579 0.8153 724.6375 105.9279)" class="st0 st1">1</text>
		<text transform="matrix(0.5863 0.8101 -0.8101 0.5863 757.9393 117.3703)" class="st0 st1">1</text>
		<text transform="matrix(0.5453 0.8383 -0.8383 0.5453 822.3372 198.9019)" class="st0 st1">0</text>
		<text transform="matrix(0.5453 0.8383 -0.8383 0.5453 779.0047 137.8705)" class="st0 st1">0</text>
		<text transform="matrix(0.5131 0.8584 -0.8584 0.5131 798.0975 165.671)" class="st0 st1">1</text>
		<text transform="matrix(0.4567 0.8896 -0.8896 0.4567 834.389 224.8235)" class="st0 st1">1</text>
		<text transform="matrix(-0.6556 0.7551 -0.7551 -0.6556 757.9368 491.4002)" class="st0 st1">0</text>
		<text transform="matrix(-0.33 0.944 -0.944 -0.33 847.5757 341.8133)" class="st0 st1">1</text>
		<text transform="matrix(-0.3892 0.9212 -0.9212 -0.3892 834.4115 372.2405)" class="st0 st1">0</text>
		<text transform="matrix(-0.6555 0.7552 -0.7552 -0.6555 827.8555 402.4341)" class="st0 st1">1</text>
		<text transform="matrix(-0.6985 0.7156 -0.7156 -0.6985 806.851 433.2993)" class="st0 st1">0</text>
		<text transform="matrix(-0.8591 0.5119 -0.5119 -0.8591 794.3059 464.668)" class="st0 st1">1</text>
		<text transform="matrix(0.1181 0.993 -0.993 0.1181 847.5869 250.3014)" class="st0 st1">0</text>
		<text transform="matrix(8.290000e-03 1 -1 8.290000e-03 856.0398 278.9711)" class="st0 st1">1</text>
		<text transform="matrix(-0.1334 0.9911 -0.9911 -0.1334 847.5767 304.0877)" class="st0 st1">0</text>
	</g>
	<g>
		<text transform="matrix(0.4802 -0.8772 0.8772 0.4802 426.3982 264.904)" class="st0 st1">0</text>
		<text transform="matrix(-0.2836 -0.9589 0.9589 -0.2836 460.6755 414.332)" class="st0 st1">1</text>
		<text transform="matrix(-0.2222 -0.975 0.975 -0.2222 438.0179 392.6555)" class="st0 st1">0</text>
		<text transform="matrix(9.088000e-02 -0.9959 0.9959 9.088000e-02 423.2931 358.1298)" class="st0 st1">1</text>
		<text transform="matrix(0.1489 -0.9888 0.9888 0.1489 411.6622 325.3238)" class="st0 st1">0</text>
		<text transform="matrix(0.3983 -0.9173 0.9173 0.3983 423.333 297.5625)" class="st0 st1">1</text>
		<text transform="matrix(-0.4958 -0.8685 0.8685 -0.4958 498.2876 464.6712)" class="st0 st1">1</text>
		<text transform="matrix(-0.4707 -0.8823 0.8823 -0.4707 482.1746 438.9006)" class="st0 st1">0</text>
		<text transform="matrix(0.9945 0.1046 -0.1046 0.9945 611.5087 119.1429)" class="st0 st1">0</text>
		<text transform="matrix(0.9702 -0.2423 0.2423 0.9702 471.9328 185.0223)" class="st0 st1">1</text>
		<text transform="matrix(0.9738 -0.2274 0.2274 0.9738 498.2838 165.6777)" class="st0 st1">0</text>
		<text transform="matrix(0.9538 -0.3004 0.3004 0.9538 523.1011 150.9184)" class="st0 st1">1</text>
		<text transform="matrix(0.9697 -0.2441 0.2441 0.9697 555.5895 132.4086)" class="st0 st1">0</text>
		<text transform="matrix(0.9999 1.351000e-02 -1.351000e-02 0.9999 580.4734 124.3492)" class="st0 st1">1</text>
		<text transform="matrix(0.7398 -0.6728 0.6728 0.7398 437.2988 243.0419)" class="st0 st1">1</text>
		<text transform="matrix(0.778 -0.6283 0.6283 0.778 451.1462 211.484)" class="st0 st1">0</text>
		<text transform="matrix(0.1097 0.994 -0.994 0.1097 801.823 256.1447)" class="st0 st1">0</text>
		<text transform="matrix(0.7823 0.6229 -0.6229 0.7823 683.7755 132.4065)" class="st0 st1">1</text>
		<text transform="matrix(0.7412 0.6713 -0.6713 0.7412 716.7874 150.9569)" class="st0 st1">0</text>
		<text transform="matrix(0.4967 0.8679 -0.8679 0.4967 745.9355 165.7002)" class="st0 st1">1</text>
		<text transform="matrix(0.4451 0.8955 -0.8955 0.4451 768.8491 198.8881)" class="st0 st1">0</text>
		<text transform="matrix(0.1998 0.9798 -0.9798 0.1998 783.3165 225.3054)" class="st0 st1">1</text>
		<text transform="matrix(0.9042 0.4271 -0.4271 0.9042 631.7218 117.3646)" class="st0 st1">1</text>
		<text transform="matrix(0.9567 0.291 -0.291 0.9567 655.3003 124.3642)" class="st0 st1">0</text>
		<text transform="matrix(-0.6559 0.7549 -0.7549 -0.6559 809.8136 348.3708)" class="st0 st1">1</text>
		<text transform="matrix(-0.6673 0.7448 -0.7448 -0.6673 798.1145 372.2104)" class="st0 st1">0</text>
		<text transform="matrix(-0.6091 0.7931 -0.7931 -0.6091 783.3639 402.5169)" class="st0 st1">1</text>
		<text transform="matrix(-0.6544 0.7562 -0.7562 -0.6544 774.7184 423.4073)" class="st0 st1">0</text>
		<text transform="matrix(-0.8269 0.5624 -0.5624 -0.8269 761.9937 449.2641)" class="st0 st1">1</text>
		<text transform="matrix(-0.2202 0.9754 -0.9754 -0.2202 806.7733 282.6569)" class="st0 st1">1</text>
		<text transform="matrix(-0.277 0.9609 -0.9609 -0.277 809.8017 315.428)" class="st0 st1">0</text>
	</g>
	<g>
		<text transform="matrix(-0.4446 -0.8957 0.8957 -0.4446 491.853 404.3604)" class="st0 st2">0</text>
		<text transform="matrix(-0.2405 -0.9707 0.9707 -0.2405 471.8761 372.2141)" class="st0 st2">1</text>
		<text transform="matrix(0.8655 0.501 -0.501 0.8655 724.6252 211.4645)" class="st0 st2">1</text>
		<text transform="matrix(0.1334 -0.9911 0.9911 0.1334 463.6294 282.7002)" class="st0 st2">0</text>
		<text transform="matrix(-0.2087 -0.978 0.978 -0.2087 463.6621 341.8648)" class="st0 st2">0</text>
		<text transform="matrix(0.1709 -0.9853 0.9853 0.1709 455.2339 315.4702)" class="st0 st2">1</text>
		<text transform="matrix(0.9251 -0.3796 0.3796 0.9251 460.6748 264.8822)" class="st0 st2">1</text>
		<text transform="matrix(0.1562 0.803 -0.9816 0.191 750.6885 405.6558)" class="st0 st3">0</text>
		<text transform="matrix(0.9959 9.091000e-02 -9.091000e-02 0.9959 546.603 177.4348)" class="st0 st2">1</text>
		<text transform="matrix(0.9881 0.1539 -0.1539 0.9881 580.4437 164.3852)" class="st0 st2">0</text>
		<text transform="matrix(0.9802 0.1979 -0.1979 0.9802 612.7328 159.8364)" class="st0 st2">1</text>
		<text transform="matrix(0.8638 0.5039 -0.5039 0.8638 642.8063 159.8849)" class="st0 st2">0</text>
		<text transform="matrix(0.7051 0.7091 -0.7091 0.7051 674.0154 170.9594)" class="st0 st2">1</text>
		<text transform="matrix(0.94 -0.3411 0.3411 0.94 477.5589 242.5559)" class="st0 st2">0</text>
		<text transform="matrix(0.968 -0.2508 0.2508 0.968 498.3159 211.4649)" class="st0 st2">1</text>
		<text transform="matrix(0.9938 -0.1112 0.1112 0.9938 527.223 188.6523)" class="st0 st2">0</text>
		<text transform="matrix(0.8638 0.5039 -0.5039 0.8638 698.1514 192.1444)" class="st0 st2">0</text>
		<text transform="matrix(-0.1499 0.9887 -0.9887 -0.1499 763.9669 377.2748)" class="st0 st2">1</text>
		<text transform="matrix(0.7878 0.616 -0.616 0.7878 744.0823 229.6798)" class="st0 st2">0</text>
		<text transform="matrix(0.7005 0.7137 -0.7137 0.7005 752.9224 264.8882)" class="st0 st2">1</text>
		<text transform="matrix(0.4324 0.9017 -0.9017 0.4324 763.9608 294.7171)" class="st0 st2">0</text>
		<text transform="matrix(0.186 0.9826 -0.9826 0.186 774.6884 321.5083)" class="st0 st2">1</text>
		<text transform="matrix(0.4324 0.9017 -0.9017 0.4324 763.9583 348.3658)" class="st0 st2">0</text>
	</g>
	<g>
		<text transform="matrix(1 -8.510000e-03 8.510000e-03 1 594.5881 198.8675)" class="st0 st4">1</text>
		<text transform="matrix(0.639 0.5107 -0.6243 0.7812 734.1544 264.9228)" class="st0 st5">0</text>
		<text transform="matrix(0.4267 -0.9044 0.9044 0.4267 491.9532 294.6901)" class="st0 st4">1</text>
		<text transform="matrix(0.5076 -0.8616 0.8616 0.5076 498.2852 271.113)" class="st0 st4">0</text>
		<text transform="matrix(0.807 -0.5905 0.5905 0.807 511.3361 251.2797)" class="st0 st4">1</text>
		<text transform="matrix(0.9866 -0.1632 0.1632 0.9866 527.129 235.3819)" class="st0 st4">0</text>
		<text transform="matrix(0.9954 9.606000e-02 -9.606000e-02 0.9954 546.6657 216.1013)" class="st0 st4">1</text>
		<text transform="matrix(0.4587 -0.8886 0.8886 0.4587 482.1768 348.4352)" class="st0 st4">1</text>
		<text transform="matrix(0.6942 -0.7197 0.7197 0.6942 482.1829 321.4105)" class="st0 st4">0</text>
		<text transform="matrix(0.9866 -0.1632 0.1632 0.9866 573.3452 204.4751)" class="st0 st4">0</text>
		<text transform="matrix(0.7728 0.6346 -0.6346 0.7728 724.6874 246.1153)" class="st0 st4">1</text>
		<text transform="matrix(0.884 0.2612 -0.2834 0.959 614.7956 195.9963)" class="st0 st4">0</text>
		<text transform="matrix(0.867 0.4983 -0.4983 0.867 636.3727 192.1968)" class="st0 st4">1</text>
		<text transform="matrix(0.9179 0.3968 -0.3968 0.9179 662.1655 204.4633)" class="st0 st4">0</text>
		<text transform="matrix(0.8669 0.4986 -0.4986 0.8669 683.756 216.0691)" class="st0 st4">1</text>
		<text transform="matrix(0.9179 0.3968 -0.3968 0.9179 708.6723 229.6189)" class="st0 st4">0</text>
		<text transform="matrix(0.7639 -0.5157 0.5595 0.8288 514.0742 288.934)" class="st0 st4">0</text>
		<text transform="matrix(0.867 0.4983 -0.4983 0.867 734.1435 285.7816)" class="st0 st4">1</text>
		<text transform="matrix(0.9179 0.3968 -0.3968 0.9179 750.6946 330.6079)" class="st0 st4">0</text>
		<text transform="matrix(1 -8.510000e-03 8.510000e-03 1 567.7028 246.0598)" class="st0 st4">1</text>
		<text transform="matrix(0.9954 9.606000e-02 -9.606000e-02 0.9954 527.2346 266.8148)" class="st0 st4">1</text>
		<text transform="matrix(0.9915 -0.1298 0.1298 0.9915 546.5696 256.2078)" class="st0 st4">0</text>
		<text transform="matrix(0.884 0.2612 -0.2834 0.959 594.6816 229.6146)" class="st0 st4">0</text>
		<text transform="matrix(0.867 0.4983 -0.4983 0.867 626.8365 225.4044)" class="st0 st4">1</text>
		<text transform="matrix(0.762 0.6476 -0.6476 0.762 644.9678 233.663)" class="st0 st4">1</text>
		<text transform="matrix(0.4978 0.7758 -0.8416 0.5401 676.0833 238.8129)" class="st0 st4">0</text>
		<text transform="matrix(0.3299 0.944 -0.944 0.3299 698.1439 250.2853)" class="st0 st4">1</text>
		<text transform="matrix(0.8874 -0.4609 0.4609 0.8874 498.2573 325.3048)" class="st0 st4">1</text>
		<text transform="matrix(0.7639 -0.5157 0.5595 0.8288 523.1305 315.4134)" class="st0 st4">0</text>
		<text transform="matrix(0.9596 -0.2813 0.2813 0.9596 537.8567 304.1163)" class="st0 st4">1</text>
		<text transform="matrix(0.9915 -0.1298 0.1298 0.9915 561.2812 288.9995)" class="st0 st4">0</text>
		<text transform="matrix(1 -8.510000e-03 8.510000e-03 1 580.3955 282.6551)" class="st0 st4">1</text>
		<text transform="matrix(0.884 0.2612 -0.2834 0.959 612.7929 282.6613)" class="st0 st4">0</text>
		<text transform="matrix(0.9699 0.2433 -0.2433 0.9699 645.7731 285.1944)" class="st0 st4">1</text>
		<text transform="matrix(0.9289 0.3703 -0.3703 0.9289 674.0894 285.4412)" class="st0 st4">0</text>
		<text transform="matrix(0.867 0.4983 -0.4983 0.867 698.1666 289.0262)" class="st0 st4">1</text>
		<text transform="matrix(0.9289 0.3703 -0.3703 0.9289 716.6871 305.3964)" class="st0 st4">0</text>
		<text transform="matrix(1 -8.510000e-03 8.510000e-03 1 611.5001 256.1776)" class="st0 st4">1</text>
		<text transform="matrix(0.9217 2.166089e-03 -2.350000e-03 1 582.0211 258.4568)" class="st0 st6">0</text>
		<text transform="matrix(0.4978 0.7758 -0.8416 0.5401 642.8538 256.1482)" class="st0 st4">0</text>
	</g>
	<path class="st7" d="M748.4,330.6c0,0,19.1,220.6-67.4,259.3c0,0-69.2,21.1-107.5,0c0,0-99.9-77.5-75.1-258.2"/>
	<path class="st8" d="M722.7,375.6c-11.7-17.8-28.3-18.1-45.8-18.4l-3.2,0c-0.5,0-1.1,0-1.6,0c-2.5,0-5,0.3-7.3,0.3h-42h-44
		c-2.9,0-6-0.4-9.2-0.3l-3.2,0.1c-17.5,0.3-34.1,0.5-45.9,18.4c-0.2,0.3-3,5.8-3.9,12.9h-1.3v5.6h1.1c0.1,4.2,0.6,7.2,1.8,11.3
		c5.3,18.3,15.9,29.8,29.7,32.8c4.1,0.9,7.5,0.9,10.8,0.9l0,0c12.6,0,23.9-5.2,36.5-19.3c12.3-13.8,15.7-28.6,14.9-38.4h23.1
		c-0.9,9.9,2.5,25,14.8,38.9c12.6,14.1,23.8,20,36.5,20c3.3,0,6.7-0.6,10.8-1.5c13.8-3,24.4-14.9,29.7-33.2
		c1.2-4.1,1.7-7.3,1.8-11.5h2.3v-5.6h-2.5C725.8,381.4,723,375.9,722.7,375.6 M591,415.8c-14.6,16.3-24.9,18.4-32.3,18.4
		c-2.9,0-6-0.3-9.6-1.1c-11.7-2.5-20.8-12.7-25.5-28.9c-4.4-15.1,1.4-25,1.6-25.3c10.1-15.3,23.8-15.6,41.2-15.9l3.2-0.1
		c0.5,0,1,0,1.5,0c16.5,0,27.4,5.5,30.7,9.3C605.2,375.9,608.5,396.3,591,415.8 M637.2,368.3c-1.2,1.4-2.3,3.2-3,6h-25.1
		c-0.7-2.8-1.8-4.6-3-6c-2.6-2.9-7.3-5.8-13.7-8c6.9-0.2,14.7,1.1,16,2.6c1.4,1.5,14.4,1.5,14.4,1.5s11.9,0.1,13.3-1.4
		c1.3-1.5,8.2-2.8,15-2.6C644.6,362.5,639.8,365.4,637.2,368.3 M719.6,404c-4.7,16.2-13.8,26.6-25.5,29.1c-3.7,0.8-6.7,1.2-9.6,1.2
		c-7.3,0-17.6-2.1-32.3-18.4c-17.4-19.5-14.2-39.9-10.8-43.7c3.3-3.7,14.2-9.3,30.7-9.3c0.5,0,1,0,1.5,0l3.2,0.1
		c17.4,0.3,31.1,0.5,41.1,15.8C718,378.8,724,388.8,719.6,404"/>
	<path class="st9" d="M582.4,409.4c-2.6,4.2-6.3,7.6-10.7,9.7c-0.8,0.4-1.7,0.8-2.5,1.1l-1,0.3l-0.4-0.9c-4.6-10.6-8.7-23-8.9-34.6
		l0-1.1l1.1,0c1.3,0,2.6,0,3.8,0l0.8,0l0.2,0.8c2,9.2,9.9,17.7,17.3,23.2l0.8,0.6L582.4,409.4L582.4,409.4z M564.5,421.4
		c-6.5,1.1-13.1-0.4-18.6-4l-0.3-0.2c-2.4-4.1-2-8.8-1.1-13.3c0.7-3.6,2.2-6.8,3.7-10.2c1.4-2.9,2.6-5.7,2.8-8.9l0.8-0.1
		c1.1-0.2,2.2-0.4,3.3-0.5l1.2-0.1l0,1.2c0.3,11.7,4.3,24,8.9,34.7l0.5,1.3L564.5,421.4L564.5,421.4z M546.1,392.7
		c-1.3,2.7-2.4,5.3-3.3,8.2c-1.4,4.7-2.2,8.6-0.7,13.8l-2.3-2.9c-1.1-1.4-2.1-3-2.9-4.6c-2.4-4.9-3.2-10.4-2.3-15.7l0.1-0.5l0.4-0.3
		c3.6-2.2,7.8-3.8,11.8-4.9l1.8-0.5C548.1,387.9,547.2,390.3,546.1,392.7L546.1,392.7z M547.5,383.2c-3.2,0.8-6.4,1.9-9.5,3.4
		l-2.6,1.2l1.2-2.6c1.6-3.7,4.1-6.9,7.2-9.4l0.9-0.7l0.7,0.9c1.3,1.8,2.4,3.8,2.9,6l0.3,1.1L547.5,383.2L547.5,383.2z M555.5,381.8
		c-1.2,0.1-2.4,0.3-3.7,0.5l-1,0.2l-0.2-1c-0.6-2.5-1.8-4.8-3.3-6.9l-0.7-1l1.1-0.6c0.4-0.2,0.7-0.4,1.1-0.6
		c2.6-1.3,5.4-2.1,8.3-2.4l1.7-0.2l-0.6,1.6c-1.1,3-1.6,6.2-1.8,9.3l-0.1,0.9L555.5,381.8L555.5,381.8z M570.6,373.8
		c-2.4,1.7-4.9,4.1-5.8,7l-0.2,0.8l-0.8,0c-1.2-0.1-2.5-0.1-3.7,0l-1.2,0l0.1-1.2c0.3-3.3,0.9-6.8,2.3-9.8l0.3-0.7l0.8,0.1
		c2.8,0.2,5.6,0.9,8.1,2l1.8,0.7L570.6,373.8L570.6,373.8z M585.5,389.7c1.2,5.1,0.9,10.5-1,15.4l-0.5,1.4c-7.9-6-14.7-13-17.1-22.3
		l1.7,0.2c5.6,0.7,11.1,2.3,16.3,4.6l0.5,0.2L585.5,389.7L585.5,389.7z M567.6,380.3c1.3-2.4,4.1-4.5,6.3-5.9l0.6-0.4l0.6,0.4
		c3.4,2.4,6.1,5.5,8.1,9.1l1.3,2.5l-2.6-0.9c-4.4-1.6-8.9-2.7-13.5-3.3l-1.6-0.2L567.6,380.3L567.6,380.3z"/>
	<path class="st9" d="M705.9,409.4c-2.6,4.2-6.3,7.6-10.7,9.7c-0.8,0.4-1.7,0.8-2.5,1.1l-1,0.3l-0.4-0.9c-4.6-10.6-8.7-23-8.9-34.6
		l0-1.1l1.1,0c1.3,0,2.6,0,3.8,0l0.8,0l0.2,0.8c2,9.2,9.9,17.7,17.3,23.2l0.8,0.6L705.9,409.4L705.9,409.4z M688,421.4
		c-6.5,1.1-13.1-0.4-18.6-4l-0.3-0.2c-2.4-4.1-2-8.8-1.1-13.3c0.7-3.6,2.2-6.8,3.7-10.2c1.4-2.9,2.6-5.7,2.8-8.9l0.8-0.1
		c1.1-0.2,2.2-0.4,3.3-0.5l1.2-0.1l0,1.2c0.3,11.7,4.3,24,8.9,34.7l0.5,1.3L688,421.4L688,421.4z M669.5,392.7
		c-1.3,2.7-2.4,5.3-3.3,8.2c-1.4,4.7-2.2,8.6-0.7,13.8l-2.3-2.9c-1.1-1.4-2.1-3-2.9-4.6c-2.4-4.9-3.2-10.4-2.3-15.7l0.1-0.5l0.4-0.3
		c3.6-2.2,7.8-3.8,11.8-4.9l1.8-0.5C671.6,387.9,670.7,390.3,669.5,392.7L669.5,392.7z M671,383.2c-3.2,0.8-6.4,1.9-9.5,3.4
		l-2.6,1.2l1.2-2.6c1.6-3.7,4.1-6.9,7.2-9.4l0.9-0.7l0.7,0.9c1.3,1.8,2.4,3.8,2.9,6l0.3,1.1L671,383.2L671,383.2z M679,381.8
		c-1.2,0.1-2.4,0.3-3.7,0.5l-1,0.2l-0.2-1c-0.6-2.5-1.8-4.8-3.3-6.9l-0.7-1l1.1-0.6c0.4-0.2,0.7-0.4,1.1-0.6
		c2.6-1.3,5.4-2.1,8.3-2.4l1.7-0.2l-0.6,1.6c-1.1,3-1.6,6.2-1.8,9.3l-0.1,0.9L679,381.8L679,381.8z M694.1,373.8
		c-2.4,1.7-4.9,4.1-5.8,7l-0.2,0.8l-0.8,0c-1.2-0.1-2.5-0.1-3.7,0l-1.2,0l0.1-1.2c0.3-3.3,0.9-6.8,2.3-9.8l0.3-0.7l0.8,0.1
		c2.8,0.2,5.6,0.9,8.1,2l1.8,0.7L694.1,373.8L694.1,373.8z M709,389.7c1.2,5.1,0.9,10.5-1,15.4l-0.5,1.4c-7.9-6-14.7-13-17.1-22.3
		l1.7,0.2c5.6,0.7,11.1,2.3,16.3,4.6l0.5,0.2L709,389.7L709,389.7z M691.1,380.3c1.3-2.4,4.1-4.5,6.3-5.9l0.6-0.4l0.6,0.4
		c3.4,2.4,6.1,5.5,8.1,9.1l1.3,2.5l-2.6-0.9c-4.4-1.6-8.9-2.7-13.5-3.3l-1.6-0.2L691.1,380.3L691.1,380.3z"/>
	<path class="st10" d="M647.8,449.4L647.8,449.4l-26.4-4.2c-0.2,0-0.4,0.1-0.5,0.3l-1.2,3.2l-1.2,3.3l-9.2,24.4
		c-1.5-1.6-4.3-2.4-7.4-2.1c-4.3,0.5-7.5,3.2-7.1,6c0.3,2.8,4.1,4.7,8.4,4.2c3.6-0.4,6.5-2.3,7.4-4.5l10.3-27.4
		c0.1-0.2,0.2-0.3,0.4-0.2l23.5,3.8c0.2,0,0.4,0.3,0.3,0.5l-8.6,22.8c-1.5-1.6-4.3-2.4-7.3-2.1c-4.3,0.5-7.5,3.2-7.2,6.1
		c0.3,2.8,4.1,4.7,8.4,4.2c3.6-0.4,6.4-2.4,7-4.7l0,0l12.3-32.8c0.1-0.3-0.1-0.5-0.3-0.6L647.8,449.4L647.8,449.4z"/>
	<path class="st10" d="M693.2,533.7c0.5-3.9,1.4-8.1,2.9-12c0,0.9,0.5,1.8,0.8,3.8c1.5,10.1,0.6,18.1-8.8,25.4c0,0-0.1,0.1-0.3,0.2
		C690.9,545.5,692.5,539.2,693.2,533.7L693.2,533.7z M682.9,557.5c0.4-0.4,0.9-0.9,1.3-1.4c5.7-1.4,9-4.5,9-4.5
		c6.4-6.5,9.3-15.9,10.3-23.8c0.8-6.5,0.5-9.1,4.9-13.5c0.4-0.3,0.7-0.6,1-0.9c0.1-0.1,0.1-0.1,0.1-0.2c0,0,0,0,0,0c0,0,0,0,0,0
		c0.4-0.8-0.1-2.1-0.7-2.6c-0.5-0.4-1.3,0.1-1.9,0.4c-0.1,0.1-0.3,0.2-0.4,0.3l-62.1,36.7c0.1-4-3.1-8.3-8.4-10.9
		c-7.3-3.7-16.2-2.7-19.8,2.2c-3.6,4.9-0.6,11.8,6.7,15.5c6.1,3.1,12.5,1.9,17-0.8l46.8-27.8c-0.2,2-0.3,2.3-0.2,5.2
		c0.2,10.4-6.2,26.6-18.8,29.8c-1.7,0.4-5.1,0.7-6.8,0.9c-3.8,0.5-1,3.4,2.3,3.3C670.5,565,677.6,562.8,682.9,557.5L682.9,557.5z"/>
	<path class="st7" d="M565.3,582.6c0,0-92.9,36.9-187.5,36.9c0,0-19.4,57.7-15.4,75.1"/>
	<path class="st11" d="M692.4,583.3"/>
	<path class="st7" d="M692.6,582.6c0,0,92.9,36.9,187.5,36.9c0,0,19.4,57.7,15.4,75.1"/>
</g>
</svg>
